<svg width="98" height="98" viewBox="0 0 98 98" fill="none" xmlns="http://www.w3.org/2000/svg">
<g filter="url(#filter0_d_477_9677)">
<g clip-path="url(#clip0_477_9677)">
<rect x="4" width="90" height="90" rx="8" fill="white"/>
<path d="M22.5227 39V9.90909H32.6932C34.7197 9.90909 36.3911 10.2595 37.7074 10.9602C39.0237 11.6515 40.0038 12.5843 40.6477 13.7585C41.2917 14.9233 41.6136 16.2159 41.6136 17.6364C41.6136 18.8864 41.3911 19.9186 40.946 20.733C40.5104 21.5473 39.9328 22.1913 39.2131 22.6648C38.5028 23.1383 37.7311 23.4886 36.8977 23.7159V24C37.7879 24.0568 38.6828 24.3693 39.5824 24.9375C40.482 25.5057 41.2348 26.3201 41.8409 27.3807C42.447 28.4413 42.75 29.7386 42.75 31.2727C42.75 32.7311 42.4186 34.0426 41.7557 35.2074C41.0928 36.3722 40.0464 37.2955 38.6165 37.9773C37.1866 38.6591 35.3258 39 33.0341 39H22.5227ZM26.0455 35.875H33.0341C35.3352 35.875 36.9688 35.4299 37.9347 34.5398C38.91 33.6402 39.3977 32.5511 39.3977 31.2727C39.3977 30.2879 39.1468 29.3788 38.6449 28.5455C38.143 27.7027 37.428 27.0303 36.5 26.5284C35.572 26.017 34.4735 25.7614 33.2045 25.7614H26.0455V35.875ZM26.0455 22.6932H32.5795C33.6402 22.6932 34.5966 22.4848 35.4489 22.0682C36.3106 21.6515 36.9924 21.0644 37.4943 20.3068C38.0057 19.5492 38.2614 18.6591 38.2614 17.6364C38.2614 16.358 37.8163 15.2737 36.9261 14.3835C36.036 13.4839 34.625 13.0341 32.6932 13.0341H26.0455V22.6932Z" fill="black"/>
<path d="M22.5227 39H21.5227V40H22.5227V39ZM22.5227 9.90909V8.90909H21.5227V9.90909H22.5227ZM37.7074 10.9602L37.2375 11.8429L37.2424 11.8456L37.7074 10.9602ZM40.6477 13.7585L39.7709 14.2394L39.7726 14.2424L40.6477 13.7585ZM40.946 20.733L40.0685 20.2534L40.0642 20.2613L40.946 20.733ZM39.2131 22.6648L38.6634 21.8293L38.6584 21.8327L39.2131 22.6648ZM36.8977 23.7159L36.6346 22.7511L35.8977 22.9521V23.7159H36.8977ZM36.8977 24H35.8977V24.9382L36.834 24.998L36.8977 24ZM39.5824 24.9375L39.0484 25.783L39.0484 25.783L39.5824 24.9375ZM41.7557 35.2074L42.6248 35.702L42.6248 35.702L41.7557 35.2074ZM38.6165 37.9773L38.1861 37.0746L38.1861 37.0746L38.6165 37.9773ZM26.0455 35.875H25.0455V36.875H26.0455V35.875ZM37.9347 34.5398L38.6123 35.2751L38.6126 35.2748L37.9347 34.5398ZM38.6449 28.5455L37.7857 29.0571L37.7883 29.0614L38.6449 28.5455ZM36.5 26.5284L36.0174 27.4043L36.0243 27.408L36.5 26.5284ZM26.0455 25.7614V24.7614H25.0455V25.7614H26.0455ZM26.0455 22.6932H25.0455V23.6932H26.0455V22.6932ZM35.4489 22.0682L35.0136 21.1679L35.0097 21.1698L35.4489 22.0682ZM37.4943 20.3068L36.6654 19.7473L36.6607 19.7545L37.4943 20.3068ZM36.9261 14.3835L36.2153 15.0869L36.219 15.0906L36.9261 14.3835ZM26.0455 13.0341V12.0341H25.0455V13.0341H26.0455ZM23.5227 39V9.90909H21.5227V39H23.5227ZM22.5227 10.9091H32.6932V8.90909H22.5227V10.9091ZM32.6932 10.9091C34.6119 10.9091 36.1084 11.2418 37.2375 11.8429L38.1773 10.0775C36.6738 9.2771 34.8275 8.90909 32.6932 8.90909V10.9091ZM37.2424 11.8456C38.4046 12.4559 39.2318 13.2562 39.7709 14.2394L41.5245 13.2777C40.7758 11.9123 39.6428 10.8471 38.1723 10.0749L37.2424 11.8456ZM39.7726 14.2424C40.3291 15.2491 40.6136 16.3734 40.6136 17.6364H42.6136C42.6136 16.0584 42.2542 14.5975 41.5229 13.2747L39.7726 14.2424ZM40.6136 17.6364C40.6136 18.7745 40.4102 19.6282 40.0685 20.2534L41.8235 21.2125C42.372 20.2089 42.6136 18.9982 42.6136 17.6364H40.6136ZM40.0642 20.2613C39.7015 20.9395 39.2338 21.4541 38.6635 21.8294L39.7627 23.5002C40.6317 22.9285 41.3194 22.1551 41.8278 21.2046L40.0642 20.2613ZM38.6584 21.8327C38.0387 22.2459 37.3655 22.5518 36.6346 22.7511L37.1608 24.6807C38.0966 24.4255 38.967 24.0306 39.7678 23.4968L38.6584 21.8327ZM35.8977 23.7159V24H37.8977V23.7159H35.8977ZM36.834 24.998C37.5277 25.0422 38.2631 25.287 39.0484 25.783L40.1164 24.092C39.1025 23.4517 38.0481 23.0714 36.9614 23.002L36.834 24.998ZM39.0484 25.783C39.7904 26.2517 40.4357 26.9371 40.9727 27.8768L42.7092 26.8845C42.034 25.7031 41.1736 24.7597 40.1164 24.092L39.0484 25.783ZM40.9727 27.8768C41.4729 28.7523 41.75 29.8688 41.75 31.2727H43.75C43.75 29.6085 43.421 28.1303 42.7092 26.8845L40.9727 27.8768ZM41.75 31.2727C41.75 32.5734 41.4562 33.7118 40.8866 34.7128L42.6248 35.702C43.3809 34.3734 43.75 32.8888 43.75 31.2727H41.75ZM40.8866 34.7128C40.3421 35.6694 39.4659 36.4644 38.1861 37.0746L39.0469 38.8799C40.6269 38.1265 41.8435 37.0749 42.6248 35.702L40.8866 34.7128ZM38.1861 37.0746C36.9368 37.6703 35.2384 38 33.0341 38V40C35.4131 40 37.4363 39.6479 39.0469 38.8799L38.1861 37.0746ZM33.0341 38H22.5227V40H33.0341V38ZM26.0455 36.875H33.0341V34.875H26.0455V36.875ZM33.0341 36.875C35.4138 36.875 37.3653 36.4243 38.6123 35.2751L37.257 33.8044C36.5722 34.4355 35.2567 34.875 33.0341 34.875V36.875ZM38.6126 35.2748C39.7845 34.194 40.3977 32.8421 40.3977 31.2727H38.3977C38.3977 32.2601 38.0356 33.0863 37.2567 33.8047L38.6126 35.2748ZM40.3977 31.2727C40.3977 30.1084 40.0984 29.0206 39.5015 28.0295L37.7883 29.0614C38.1951 29.7369 38.3977 30.4673 38.3977 31.2727H40.3977ZM39.5041 28.0338C38.9029 27.0243 38.05 26.2298 36.9757 25.6488L36.0243 27.408C36.8061 27.8308 37.3831 28.381 37.7857 29.0571L39.5041 28.0338ZM36.9826 25.6526C35.8801 25.0451 34.609 24.7614 33.2045 24.7614V26.7614C34.338 26.7614 35.2638 26.989 36.0174 27.4042L36.9826 25.6526ZM33.2045 24.7614H26.0455V26.7614H33.2045V24.7614ZM25.0455 25.7614V35.875H27.0455V25.7614H25.0455ZM26.0455 23.6932H32.5795V21.6932H26.0455V23.6932ZM32.5795 23.6932C33.7743 23.6932 34.8836 23.4576 35.8881 22.9666L35.0097 21.1698C34.3095 21.5121 33.5061 21.6932 32.5795 21.6932V23.6932ZM35.8842 22.9685C36.8985 22.478 37.7216 21.7744 38.328 20.8591L36.6607 19.7545C36.2633 20.3544 35.7227 20.825 35.0136 21.1679L35.8842 22.9685ZM38.3232 20.8663C38.9591 19.9242 39.2614 18.8339 39.2614 17.6364H37.2614C37.2614 18.4843 37.0523 19.1743 36.6655 19.7473L38.3232 20.8663ZM39.2614 17.6364C39.2614 16.0974 38.7142 14.7573 37.6332 13.6764L36.219 15.0906C36.9184 15.79 37.2614 16.6185 37.2614 17.6364H39.2614ZM37.637 13.6802C36.4801 12.511 34.7539 12.0341 32.6932 12.0341V14.0341C34.4961 14.0341 35.5919 14.4568 36.2153 15.0869L37.637 13.6802ZM32.6932 12.0341H26.0455V14.0341H32.6932V12.0341ZM25.0455 13.0341V22.6932H27.0455V13.0341H25.0455Z" fill="black"/>
<path d="M57.5227 38V8.90909H61.0455V34.875H74.5682V38H57.5227Z" fill="black"/>
<path d="M57.5227 38H56.5227V39H57.5227V38ZM57.5227 8.90909V7.90909H56.5227V8.90909H57.5227ZM61.0455 8.90909H62.0455V7.90909H61.0455V8.90909ZM61.0455 34.875H60.0455V35.875H61.0455V34.875ZM74.5682 34.875H75.5682V33.875H74.5682V34.875ZM74.5682 38V39H75.5682V38H74.5682ZM58.5227 38V8.90909H56.5227V38H58.5227ZM57.5227 9.90909H61.0455V7.90909H57.5227V9.90909ZM60.0455 8.90909V34.875H62.0455V8.90909H60.0455ZM61.0455 35.875H74.5682V33.875H61.0455V35.875ZM73.5682 34.875V38H75.5682V34.875H73.5682ZM74.5682 37H57.5227V39H74.5682V37Z" fill="black"/>
<path d="M73.3466 61.0994C73.2235 60.2377 73.0057 59.4659 72.6932 58.7841C72.3902 58.0928 71.9782 57.5057 71.4574 57.0227C70.9366 56.5398 70.3116 56.1705 69.5824 55.9148C68.8532 55.6496 68.0057 55.517 67.0398 55.517C65.392 55.517 63.8153 55.9384 62.3097 56.7812C60.8134 57.6241 59.5256 58.8598 58.446 60.4886C57.3665 62.108 56.6326 64.0919 56.2443 66.4403C55.8466 68.7983 55.875 70.7917 56.3295 72.4205C56.7841 74.0492 57.589 75.285 58.7443 76.1278C59.8996 76.9706 61.3295 77.392 63.0341 77.392C64.6155 77.392 66.0691 77.0701 67.3949 76.4261C68.7206 75.7822 69.8239 74.8731 70.7045 73.6989C71.5947 72.5152 72.1676 71.1231 72.4233 69.5227L73.517 69.7358H65.1932L65.8182 66.1136H77.267L76.6847 69.4233C76.2964 71.8759 75.4347 74.0019 74.0994 75.8011C72.7642 77.5909 71.1023 78.9735 69.1136 79.9489C67.1345 80.9148 64.9659 81.3977 62.608 81.3977C59.9754 81.3977 57.7689 80.7917 55.9886 79.5795C54.2083 78.3674 52.9489 76.6487 52.2102 74.4233C51.4811 72.1884 51.3722 69.5369 51.8835 66.4688C52.2528 64.1487 52.911 62.0653 53.858 60.2188C54.8144 58.3722 55.9839 56.8049 57.3665 55.517C58.7491 54.2197 60.2879 53.2301 61.983 52.5483C63.6875 51.857 65.4773 51.5114 67.3523 51.5114C68.9242 51.5114 70.3494 51.7434 71.6278 52.2074C72.9157 52.6714 74.0237 53.3295 74.9517 54.1818C75.8797 55.0341 76.5947 56.0473 77.0966 57.2216C77.5985 58.3864 77.8494 59.679 77.8494 61.0994H73.3466Z" fill="black"/>
<path d="M73.3466 61.0994L72.3566 61.2409L72.4793 62.0994H73.3466V61.0994ZM72.6932 58.7841L71.7773 59.1856L71.7807 59.1932L71.7841 59.2007L72.6932 58.7841ZM71.4574 57.0227L70.7774 57.756L70.7774 57.756L71.4574 57.0227ZM69.5824 55.9148L69.2406 56.8546L69.2515 56.8584L69.5824 55.9148ZM62.3097 56.7812L61.8212 55.9086L61.8189 55.91L62.3097 56.7812ZM58.446 60.4886L59.2781 61.0433L59.2796 61.0411L58.446 60.4886ZM56.2443 66.4403L57.2304 66.6067L57.2309 66.6034L56.2443 66.4403ZM56.3295 72.4205L55.3663 72.6893L56.3295 72.4205ZM58.7443 76.1278L59.3337 75.32L59.3337 75.32L58.7443 76.1278ZM67.3949 76.4261L67.8318 77.3256L67.8318 77.3256L67.3949 76.4261ZM70.7045 73.6989L69.9053 73.0978L69.9045 73.0989L70.7045 73.6989ZM72.4233 69.5227L72.6145 68.5412L71.599 68.3434L71.4358 69.365L72.4233 69.5227ZM73.517 69.7358V70.7358L73.7083 68.7542L73.517 69.7358ZM65.1932 69.7358L64.2077 69.5658L64.0059 70.7358H65.1932V69.7358ZM65.8182 66.1136V65.1136H64.976L64.8327 65.9436L65.8182 66.1136ZM77.267 66.1136L78.2519 66.2869L78.4584 65.1136H77.267V66.1136ZM76.6847 69.4233L75.6998 69.25L75.6983 69.2585L75.697 69.2669L76.6847 69.4233ZM74.0994 75.8011L74.901 76.3991L74.9025 76.3971L74.0994 75.8011ZM69.1136 79.9489L69.5522 80.8476L69.554 80.8467L69.1136 79.9489ZM55.9886 79.5795L56.5514 78.7529L56.5514 78.7529L55.9886 79.5795ZM52.2102 74.4233L51.2595 74.7335L51.2611 74.7383L52.2102 74.4233ZM51.8835 66.4688L52.8699 66.6332L52.8711 66.626L51.8835 66.4688ZM53.858 60.2188L52.97 59.7588L52.9681 59.7624L53.858 60.2188ZM57.3665 55.517L58.0481 56.2488L58.0508 56.2463L57.3665 55.517ZM61.983 52.5483L62.3561 53.4761L62.3588 53.475L61.983 52.5483ZM71.6278 52.2074L71.2867 53.1474L71.2889 53.1482L71.6278 52.2074ZM77.0966 57.2216L76.1771 57.6146L76.1782 57.6173L77.0966 57.2216ZM77.8494 61.0994V62.0994H78.8494V61.0994H77.8494ZM74.3365 60.958C74.202 60.016 73.9606 59.1493 73.6022 58.3674L71.7841 59.2007C72.0507 59.7825 72.245 60.4594 72.3566 61.2409L74.3365 60.958ZM73.6091 58.3826C73.2545 57.5737 72.7649 56.8714 72.1373 56.2895L70.7774 57.756C71.1915 58.1399 71.5258 58.6119 71.7773 59.1856L73.6091 58.3826ZM72.1373 56.2895C71.5073 55.7052 70.7605 55.2682 69.9133 54.9711L69.2515 56.8584C69.8626 57.0727 70.3658 57.3743 70.7774 57.756L72.1373 56.2895ZM69.9241 54.975C69.0623 54.6616 68.0948 54.517 67.0398 54.517V56.517C67.9166 56.517 68.6441 56.6377 69.2406 56.8546L69.9241 54.975ZM67.0398 54.517C65.2128 54.517 63.4688 54.9864 61.8212 55.9087L62.7981 57.6538C64.1619 56.8905 65.5713 56.517 67.0398 56.517V54.517ZM61.8189 55.91C60.1668 56.8405 58.7673 58.1938 57.6125 59.9362L59.2796 61.0411C60.2838 59.5259 61.4601 58.4076 62.8004 57.6525L61.8189 55.91ZM57.614 59.9339C56.4402 61.6946 55.6641 63.8193 55.2577 66.2772L57.2309 66.6034C57.6011 64.3645 58.2928 62.5213 59.2781 61.0433L57.614 59.9339ZM55.2582 66.274C54.8455 68.721 54.8594 70.8728 55.3663 72.6893L57.2927 72.1517C56.8906 70.7105 56.8477 68.8756 57.2304 66.6067L55.2582 66.274ZM55.3663 72.6893C55.8699 74.4936 56.7863 75.9372 58.155 76.9357L59.3337 75.32C58.3918 74.6328 57.6983 73.6049 57.2927 72.1517L55.3663 72.6893ZM58.155 76.9357C59.5123 77.9259 61.1595 78.392 63.0341 78.392V76.392C61.4996 76.392 60.2869 76.0154 59.3337 75.32L58.155 76.9357ZM63.0341 78.392C64.7556 78.392 66.3601 78.0405 67.8318 77.3256L66.958 75.5266C65.7782 76.0997 64.4754 76.392 63.0341 76.392V78.392ZM67.8318 77.3256C69.3001 76.6125 70.528 75.601 71.5045 74.2989L69.9045 73.0989C69.1198 74.1453 68.1412 74.9519 66.958 75.5266L67.8318 77.3256ZM71.5038 74.2999C72.5009 72.974 73.1319 71.4263 73.4108 69.6805L71.4358 69.365C71.2034 70.8199 70.6885 72.0563 69.9053 73.0978L71.5038 74.2999ZM72.2321 70.5043L73.3258 70.7173L73.7083 68.7542L72.6145 68.5412L72.2321 70.5043ZM73.517 68.7358H65.1932V70.7358H73.517V68.7358ZM66.1786 69.9058L66.8036 66.2837L64.8327 65.9436L64.2077 69.5658L66.1786 69.9058ZM65.8182 67.1136H77.267V65.1136H65.8182V67.1136ZM76.2822 65.9403L75.6998 69.25L77.6695 69.5966L78.2519 66.2869L76.2822 65.9403ZM75.697 69.2669C75.3311 71.5779 74.5255 73.549 73.2964 75.2052L74.9025 76.3971C76.3438 74.4548 77.2617 72.174 77.6724 69.5796L75.697 69.2669ZM73.2979 75.2032C72.0568 76.8668 70.5182 78.1461 68.6733 79.051L69.554 80.8467C71.6863 79.8008 73.4716 78.315 74.901 76.3991L73.2979 75.2032ZM68.675 79.0502C66.842 79.9448 64.8249 80.3977 62.608 80.3977V82.3977C65.1069 82.3977 67.4269 81.8848 69.5522 80.8475L68.675 79.0502ZM62.608 80.3977C60.131 80.3977 58.132 79.8291 56.5514 78.7529L55.4258 80.4061C57.4058 81.7542 59.8198 82.3977 62.608 82.3977V80.3977ZM56.5514 78.7529C54.9689 77.6755 53.8353 76.145 53.1593 74.1083L51.2611 74.7383C52.0624 77.1524 53.4478 79.0594 55.4258 80.4061L56.5514 78.7529ZM53.1609 74.1131C52.4952 72.0726 52.3768 69.5919 52.8699 66.6331L50.8971 66.3044C50.3675 69.482 50.467 72.3043 51.2595 74.7335L53.1609 74.1131ZM52.8711 66.626C53.226 64.3966 53.8549 62.4162 54.7478 60.6751L52.9681 59.7624C51.9671 61.7144 51.2797 63.9008 50.896 66.3115L52.8711 66.626ZM54.7459 60.6787C55.6549 58.9236 56.7574 57.4511 58.0481 56.2488L56.6849 54.7853C55.2104 56.1588 53.9739 57.8207 52.97 59.7588L54.7459 60.6787ZM58.0508 56.2463C59.3463 55.0306 60.7805 54.1098 62.3561 53.4761L61.6098 51.6205C59.7953 52.3504 58.1518 53.4088 56.6822 54.7878L58.0508 56.2463ZM62.3588 53.475C63.9416 52.8331 65.6035 52.5114 67.3523 52.5114V50.5114C65.351 50.5114 63.4334 50.8809 61.6071 51.6216L62.3588 53.475ZM67.3523 52.5114C68.8257 52.5114 70.1332 52.7287 71.2867 53.1474L71.969 51.2674C70.5657 50.758 69.0228 50.5114 67.3523 50.5114V52.5114ZM71.2889 53.1482C72.4627 53.5711 73.4532 54.1634 74.2753 54.9183L75.6281 53.4453C74.5941 52.4957 73.3687 51.7717 71.9668 51.2666L71.2889 53.1482ZM74.2753 54.9183C75.0974 55.6733 75.7302 56.569 76.1771 57.6146L78.0161 56.8286C77.4592 55.5257 76.6621 54.3948 75.6281 53.4453L74.2753 54.9183ZM76.1782 57.6173C76.6202 58.6429 76.8494 59.7987 76.8494 61.0994H78.8494C78.8494 59.5592 78.5768 58.1298 78.015 56.8259L76.1782 57.6173ZM77.8494 60.0994H73.3466V62.0994H77.8494V60.0994Z" fill="black"/>
<rect x="20.5" y="55.5" width="21" height="21" rx="2.5" fill="white" stroke="#646CFF" stroke-width="3"/>
<rect x="54" y="6" width="9" height="13" fill="white"/>
</g>
</g>
<defs>
<filter id="filter0_d_477_9677" x="0" y="0" width="98" height="98" filterUnits="userSpaceOnUse" color-interpolation-filters="sRGB">
<feFlood flood-opacity="0" result="BackgroundImageFix"/>
<feColorMatrix in="SourceAlpha" type="matrix" values="0 0 0 0 0 0 0 0 0 0 0 0 0 0 0 0 0 0 127 0" result="hardAlpha"/>
<feOffset dy="4"/>
<feGaussianBlur stdDeviation="2"/>
<feComposite in2="hardAlpha" operator="out"/>
<feColorMatrix type="matrix" values="0 0 0 0 0 0 0 0 0 0 0 0 0 0 0 0 0 0 0.25 0"/>
<feBlend mode="normal" in2="BackgroundImageFix" result="effect1_dropShadow_477_9677"/>
<feBlend mode="normal" in="SourceGraphic" in2="effect1_dropShadow_477_9677" result="shape"/>
</filter>
<clipPath id="clip0_477_9677">
<rect x="4" width="90" height="90" rx="8" fill="white"/>
</clipPath>
</defs>
</svg>
